<svg id="Layer_1" data-name="Layer 1" xmlns="http://www.w3.org/2000/svg" viewBox="0 0 53.18 56.88"><defs><style>.cls-1{fill:#ff7070;}</style></defs><path class="cls-1" d="M26.59,0A6.68,6.68,0,0,0,22.7,1.3L19.07,3.83l-4.17.55h-.07l-.06.06a7.43,7.43,0,0,0-5.61,5.61l-.07.07v.07l-.55,4.23L6,17.71,6,17.77v.07A7.15,7.15,0,0,0,6,25.77l2.59,3.62.69,3.76-7,10.74L0,47.24H10.46L13,53.12l1.57,3.76,2.26-3.42,6.9-10.39a7.2,7.2,0,0,0,5.74,0l6.91,10.39,2.25,3.42,1.58-3.76,2.52-5.88H53.18l-2.25-3.35L44.09,33.5l.55-4.11,2.53-3.62.07-.07v-.07a7.05,7.05,0,0,0-.07-7.86l-2.53-3.62-.82-4.1h.07c0-.05-.06-.09-.07-.14a6.44,6.44,0,0,0-5.54-5.53h-.07l-4.1-.55L30.49,1.3A6.71,6.71,0,0,0,26.59,0Zm0,4.44A2.49,2.49,0,0,1,28,4.85l3.9,2.81.47.34.55.07,4.79.68h.06a1.93,1.93,0,0,1,1.78,1.78v.13l.89,4.86.07.48.34.41,2.8,3.89a2.78,2.78,0,0,1-.07,3l-3.07,4.31-.07.54L39.72,33V33a2.21,2.21,0,0,1-.35.95l-.13.07v.07a1.87,1.87,0,0,1-1.3.68H37.8l-5,.89-.54.07-.41.34L28,38.9a2.9,2.9,0,0,1-3.08-.07l-3.55-2.74-.41-.34-.62-.07L15.52,35h-.07A1.92,1.92,0,0,1,14,34a2.22,2.22,0,0,1-.28-.82v-.13l-.89-5-.07-.55-.34-.41-2.8-3.9a2.88,2.88,0,0,1,.07-3.07l2.73-3.56.34-.41.07-.61L13.4,11s.06,0,.07-.07a3,3,0,0,1,2.18-2.19s0-.06.07-.07l4.58-.61L20.85,8l.48-.34,3.89-2.81A2.51,2.51,0,0,1,26.59,4.44ZM41.7,37.73l3.35,5.13H39.79l-.55,1.37-1.51,3.48-4.64-7.1,1-.76,4.31-.75v.07s.08-.06.13-.07A6.5,6.5,0,0,0,41.7,37.73Zm-30.22.07a6.3,6.3,0,0,0,3.42,1.58H15l4.17.54,1,.75-4.65,7L14,44.23l-.55-1.37H8.13Z"/></svg>