<svg id="Layer_1" data-name="Layer 1" xmlns="http://www.w3.org/2000/svg" viewBox="0 0 48.13 56.74"><defs><style>.cls-1{fill:#ff7070;}</style></defs><path class="cls-1" d="M44.17,0,38.76,2a12.94,12.94,0,0,0-6.64,5.64h0l-.1.17h0l0,0L30.6,10.3l-.73,1.26L28,14.84h-.08c-.57.09-1.17.17-1.78.23h-.06c-.65.05-1.33.09-2,.09s-1.36,0-2-.09H22c-.62-.06-1.21-.14-1.76-.22a.71.71,0,0,0-.2,0c-.45-.08-.87-.18-1.27-.28l-.44-.11-.55-.19a9.29,9.29,0,0,1-1.29-.52c-.1-.05-.23-.1-.31-.15a3,3,0,0,1-.8-.59h0v0c-.08.1-.14.16.06,0,0,0,0,0,0,0h0c.68-.73,3.61-2.12,8.6-2.12.43,0,.81,0,1.22,0l2.37-4.19a28.6,28.6,0,0,0-3.59-.22c-5,0-10.28,1.29-12.28,4.05-.53.64-1.41,1.72-2.47,3.23a30.75,30.75,0,0,0-1.76,2.78A13.45,13.45,0,0,0,7,17.7,31.1,31.1,0,0,0,0,37.05C0,47.89,11,56.74,24.06,56.74S48.13,48,48.13,37.05a31.16,31.16,0,0,0-7-19.35c-.18-.42-.39-.81-.61-1.23a27.72,27.72,0,0,0-1.79-2.82c-.64-.92-1.29-1.76-1.82-2.44-.22-.28-.35-.4-.51-.6a4.23,4.23,0,0,0-.58-.7,8.53,8.53,0,0,1,4.43-3.77h0l5.41-2ZM35.42,16.51c.49.72,1,1.45,1.3,2a5.89,5.89,0,0,1,.42,1s0,.06,0,.07a1.52,1.52,0,0,1-.54.92A8.47,8.47,0,0,1,34,22.18,24,24,0,0,1,27,23.8c-.93.08-1.91.13-2.9.13a26.53,26.53,0,0,1-10-1.75,8.4,8.4,0,0,1-2.58-1.61A2.7,2.7,0,0,1,11,20a.79.79,0,0,1-.08-.3h0a.75.75,0,0,0,0-.16l0,0a5.34,5.34,0,0,1,.37-.89,24.11,24.11,0,0,1,1.31-2.06,8.34,8.34,0,0,0,1.3.85l.17.09a11.38,11.38,0,0,0,1.21.61.75.75,0,0,1,.13.06c.32.12.69.23,1,.34s.43.16.67.23a25.56,25.56,0,0,0,6.83.86,25.64,25.64,0,0,0,6.84-.86c.24-.07.44-.16.66-.23s.72-.22,1.05-.34a.39.39,0,0,1,.13-.06c.43-.18.82-.4,1.21-.61l.17-.09A10.42,10.42,0,0,0,35.42,16.51Zm-27,7.19a9.79,9.79,0,0,0,1.77,1.39,16,16,0,0,0,2.14,1.12A30.42,30.42,0,0,0,24.06,28.3a30.38,30.38,0,0,0,11.69-2.09,16.1,16.1,0,0,0,2.15-1.12,10.54,10.54,0,0,0,1.77-1.39,26.55,26.55,0,0,1,4.08,13.35c0,8-8.57,15.31-19.69,15.31S4.38,44.81,4.38,37.05A26.49,26.49,0,0,1,8.46,23.7Z"/></svg>