<svg id="Layer_1" data-name="Layer 1" xmlns="http://www.w3.org/2000/svg" viewBox="0 0 48.13 52.5"><defs><style>.cls-1{fill:#ff7070;}</style></defs><path class="cls-1" d="M6.56,0A6.6,6.6,0,0,0,0,6.56V37.19a6.6,6.6,0,0,0,6.56,6.56h8.75v2.19a6.6,6.6,0,0,0,6.57,6.56H48.13V8.75H32.81V0Zm0,4.38H28.44V8.75H21.88A6.53,6.53,0,0,0,17,10.94H8.75v4.37h6.56V30.63H6.56A6.34,6.34,0,0,0,4.38,31V6.56A2.14,2.14,0,0,1,6.56,4.38Zm15.32,8.75H43.75V39.38H21.88a6.4,6.4,0,0,0-2.19.41V15.31A2.14,2.14,0,0,1,21.88,13.13Zm2.18,6.56v4.37H39.38V19.69ZM6.56,35h8.75v4.38H6.56a2.19,2.19,0,0,1,0-4.38Zm15.32,8.75H43.75v4.38H21.88a2.19,2.19,0,1,1,0-4.38Z"/></svg>