<svg id="Layer_1" data-name="Layer 1" xmlns="http://www.w3.org/2000/svg" viewBox="0 0 12.02 10.48"><title>Artboard 1</title><path d="M11.86,2.4A3.25,3.25,0,0,0,9.17.05a3.14,3.14,0,0,0-.61,0A3.3,3.3,0,0,0,6.05,1.2l0,.05c-.15-.16-.31-.32-.47-.46A3.29,3.29,0,0,0,3.41,0,3.35,3.35,0,0,0,.11,2.58a4,4,0,0,0,0,1.62A4.09,4.09,0,0,0,.64,5.71,10.41,10.41,0,0,0,2.57,8a21.36,21.36,0,0,0,3.36,2.47.18.18,0,0,0,.1,0,.11.11,0,0,0,.08,0,20.83,20.83,0,0,0,4.11-3.2,7.34,7.34,0,0,0,1.45-2A3.54,3.54,0,0,0,12,4.09.11.11,0,0,1,12,4v-1C12,2.84,11.92,2.62,11.86,2.4Zm-.69,1.5a.16.16,0,0,0,0,.1,2.61,2.61,0,0,1-.26.85A6.27,6.27,0,0,1,9.6,6.66,18.89,18.89,0,0,1,6,9.5,20,20,0,0,1,3.14,7.34,9.51,9.51,0,0,1,1.36,5.27,3.3,3.3,0,0,1,.9,4.06a3.34,3.34,0,0,1,0-1.3A2.52,2.52,0,0,1,3.43.83,2.39,2.39,0,0,1,5,1.42a3,3,0,0,1,.27.25,1.22,1.22,0,0,1,.15.17l.72.72.57-.84A2.4,2.4,0,0,1,8.58.83,3.55,3.55,0,0,1,9,.86a2.41,2.41,0,0,1,2,1.79,1.3,1.3,0,0,1,.08.34s0,.09,0,.14V3.9Z"/></svg>