<svg id="Layer_1" data-name="Layer 1" xmlns="http://www.w3.org/2000/svg" viewBox="0 0 20.31 17.51"><title>Artboard 1</title><path d="M18.8,0a2.37,2.37,0,0,0-.72.17h0L15.18,1.33,9.41,3.66,1.21,7l.05,0a2.84,2.84,0,0,0-.58.28,1.64,1.64,0,0,0-.45.43A1.18,1.18,0,0,0,0,8.5a1.53,1.53,0,0,0,.7,1.05,2.12,2.12,0,0,0,.52.26h0l3.82,1.24c.17.52,1.16,3.65,1.4,4.37a2.73,2.73,0,0,0,.45.91,1.2,1.2,0,0,0,.29.26l.15.07h0l0,0,.09,0a1.36,1.36,0,0,0,1.09-.19l0,0,2.26-2,3.77,2.78.09,0a2.08,2.08,0,0,0,2-.18,1.92,1.92,0,0,0,.59-.75l0-.07L20.24,2a2,2,0,0,0,0-1A1.38,1.38,0,0,0,19.64.2,1.57,1.57,0,0,0,18.8,0Zm-.07,1.54c0,.05,0,0,0,.13h0l-2.89,14.2a.32.32,0,0,1-.09.11c-.06,0-.11.07-.36,0l-4.62-3.4L8,15l.58-3.59,7.55-6.75c.31-.28.21-.34.21-.34,0-.34-.47-.1-.47-.1L6.31,9.89v0L1.75,8.4h.06L10,5l5.77-2.33,2.86-1.15C18.71,1.54,18.68,1.54,18.73,1.54Z"/></svg>