<svg id="Layer_1" data-name="Layer 1" xmlns="http://www.w3.org/2000/svg" viewBox="0 0 35 31.08"><title>Artboard 1</title><path d="M17.57,31.08l-.79-.49a59.71,59.71,0,0,1-9.29-7A29.77,29.77,0,0,1,1.87,16.9a11.75,11.75,0,0,1-1.7-4.47A11.89,11.89,0,0,1,.33,7.64,9.73,9.73,0,0,1,9.94,0h0a9.44,9.44,0,0,1,6.21,2.34,17.34,17.34,0,0,1,1.36,1.35l.16-.19A9.48,9.48,0,0,1,24.93,0h0a10.94,10.94,0,0,1,1.71.13h.07a9.48,9.48,0,0,1,7.81,6.92c.18.64.31,1.22.44,1.84l0,.31v2.61l-.07.3A10.75,10.75,0,0,1,34,15.37a21.48,21.48,0,0,1-4.23,6.08,59.83,59.83,0,0,1-11.4,9.13ZM10,3h0A6.75,6.75,0,0,0,3.26,8.28a9.24,9.24,0,0,0-.14,3.66A9.34,9.34,0,0,0,4.4,15.3a27.06,27.06,0,0,0,5.08,6,56.39,56.39,0,0,0,8.07,6.2,55.67,55.67,0,0,0,10-8.16l.09-.08a18.38,18.38,0,0,0,3.59-5.18A7.62,7.62,0,0,0,32,11.76c0-.1,0-.21.05-.31V9.37c-.11-.51-.21-1-.34-1.45a6.49,6.49,0,0,0-5.38-4.81L24.89,3A6.48,6.48,0,0,0,20,5.43l-.11.14-.21.23L17.42,8.07,15.29,5.7a11.53,11.53,0,0,0-1.11-1.1A6.44,6.44,0,0,0,10,3Z"/></svg>