<svg id="Layer_1" data-name="Layer 1" xmlns="http://www.w3.org/2000/svg" viewBox="0 0 26 6.28"><title>Artboard 1</title><path d="M3.14,0h0A3.14,3.14,0,0,1,6.28,3.14h0A3.15,3.15,0,0,1,3.14,6.28h0A3.14,3.14,0,0,1,0,3.14H0A3.13,3.13,0,0,1,3.14,0Z"/><path d="M13,0h0a3.14,3.14,0,0,1,3.14,3.14h0A3.15,3.15,0,0,1,13,6.28h0A3.15,3.15,0,0,1,9.86,3.14h0A3.14,3.14,0,0,1,13,0Z"/><path d="M22.86,0h0A3.14,3.14,0,0,1,26,3.14h0a3.15,3.15,0,0,1-3.14,3.14h0a3.15,3.15,0,0,1-3.14-3.14h0A3.14,3.14,0,0,1,22.86,0Z"/></svg>