<svg id="Layer_1" data-name="Layer 1" xmlns="http://www.w3.org/2000/svg" viewBox="0 0 20 14"><title>Artboard 1</title><path d="M7.93,9.58V4L13.34,6.8ZM19.8,3A4.35,4.35,0,0,0,19,1,2.88,2.88,0,0,0,17,.2C14.2,0,10,0,10,0h0S5.8,0,3,.2A2.92,2.92,0,0,0,1,1,4.42,4.42,0,0,0,.2,3,29.94,29.94,0,0,0,0,6.24V7.75A29.94,29.94,0,0,0,.2,11,4.42,4.42,0,0,0,1,13a3.43,3.43,0,0,0,2.21.85C4.8,14,10,14,10,14s4.2,0,7-.21A2.84,2.84,0,0,0,19,13a4.35,4.35,0,0,0,.8-2A29.94,29.94,0,0,0,20,7.75V6.24A29.94,29.94,0,0,0,19.8,3Z" fill-rule="evenodd"/></svg>