<svg id="Layer_1" data-name="Layer 1" xmlns="http://www.w3.org/2000/svg" viewBox="0 0 324 138"><title>Artboard 1</title><path d="M6,0A3.76,3.76,0,0,0,3.14,1.18,3.81,3.81,0,0,0,2,4V33.62a3.94,3.94,0,0,0,4,4,3.77,3.77,0,0,0,2.78-1.15,3.83,3.83,0,0,0,1.16-2.81V7.91H26.7V33.62a3.83,3.83,0,0,0,1.16,2.81,3.79,3.79,0,0,0,2.78,1.15,3.94,3.94,0,0,0,4-4V4a3.81,3.81,0,0,0-1.16-2.79A3.81,3.81,0,0,0,30.64,0Z" fill="#b4a8e3"/><path d="M68.91,13.86A5.94,5.94,0,0,1,63,19.78H52.1V7.91H63a5.67,5.67,0,0,1,4.2,1.76A5.66,5.66,0,0,1,68.91,13.86ZM48.16,37.58a3.77,3.77,0,0,0,2.78-1.15,3.83,3.83,0,0,0,1.16-2.81V27.69H63a13.34,13.34,0,0,0,9.79-4.07,13.26,13.26,0,0,0,4.07-9.76,13.34,13.34,0,0,0-4.07-9.79A13.34,13.34,0,0,0,63,0H48.16a3.76,3.76,0,0,0-2.81,1.18A3.81,3.81,0,0,0,44.19,4V33.62a3.94,3.94,0,0,0,4,4Z" fill="#b4a8e3"/><path d="M112.07,18.8a10.86,10.86,0,0,1-10.89,10.87,10.5,10.5,0,0,1-7.68-3.18,10.5,10.5,0,0,1-3.18-7.69,10.5,10.5,0,0,1,3.18-7.68,10.83,10.83,0,0,1,15.39,0A10.5,10.5,0,0,1,112.07,18.8Zm-29.66,0a18.13,18.13,0,0,0,5.5,13.28,18.77,18.77,0,0,0,26.55,0A18.11,18.11,0,0,0,120,18.8a18.08,18.08,0,0,0-5.52-13.28,18.72,18.72,0,0,0-26.55,0A18.1,18.1,0,0,0,82.41,18.8Z" fill="#b4a8e3"/><path d="M26.7,64.07A5.94,5.94,0,0,1,20.75,70H9.89V58.12H20.75a6,6,0,0,1,5.95,5.95ZM6,87.79a3.77,3.77,0,0,0,2.78-1.15,3.84,3.84,0,0,0,1.16-2.82V77.9H20.75a13.34,13.34,0,0,0,9.79-4.07,13.77,13.77,0,0,0,0-19.55,13.31,13.31,0,0,0-9.79-4.07H6a3.76,3.76,0,0,0-2.81,1.18A3.81,3.81,0,0,0,2,54.18V83.82a3.94,3.94,0,0,0,4,4Z" fill="#b4a8e3"/><path d="M69.86,69a10.88,10.88,0,0,1-18.57,7.68A10.87,10.87,0,1,1,66.68,61.33,10.5,10.5,0,0,1,69.86,69ZM40.2,69A18.78,18.78,0,0,0,59,87.79,18.81,18.81,0,0,0,77.77,69,18.85,18.85,0,0,0,59,50.21,18.81,18.81,0,0,0,40.2,69Z" fill="#b4a8e3"/><path d="M103.64,63l8.44,16.84H95.24ZM117,88.77a4,4,0,0,0,7.93,0V83.85A3.76,3.76,0,0,0,123.72,81a3.81,3.81,0,0,0-2.79-1.16h0L107.18,52.44a3.94,3.94,0,0,0-7.07,0L86.38,79.88h0a3.94,3.94,0,0,0-4,4v4.92a4,4,0,1,0,7.9,0v-1H117Z" fill="#b4a8e3"/><path d="M135.47,87.79a3.83,3.83,0,0,1-1.35-.23,3.79,3.79,0,0,1-1.89-1.45,3.91,3.91,0,0,1-.72-2.29V54.18a4,4,0,0,1,4-4,3.75,3.75,0,0,1,2.79,1.18,3.84,3.84,0,0,1,1.15,2.79V72.9l17.72-21.26a4,4,0,0,1,4.39-1.18,3.78,3.78,0,0,1,1.88,1.43,3.85,3.85,0,0,1,.73,2.29V83.82a3.93,3.93,0,0,1-4,4,3.79,3.79,0,0,1-2.78-1.15,3.83,3.83,0,0,1-1.15-2.82V65.1L138.51,86.36A3.83,3.83,0,0,1,135.47,87.79Z" fill="#b4a8e3"/><path d="M183.08,58.12v25.7a3.83,3.83,0,0,0,1.15,2.82A3.87,3.87,0,0,0,187,87.79a3.93,3.93,0,0,0,3.94-4V58.12h8.41A3.88,3.88,0,0,0,202.2,57a4,4,0,0,0-2.81-6.75h-24.7A4,4,0,0,0,171.88,57a3.83,3.83,0,0,0,2.81,1.16Z" fill="#b4a8e3"/><path d="M238.65,87.79a3.94,3.94,0,0,0,4-4A3.8,3.8,0,0,0,241.46,81a3.87,3.87,0,0,0-2.81-1.16H217.9V73h15.81a3.87,3.87,0,0,0,2.81-1.15,4,4,0,0,0,0-5.6,3.87,3.87,0,0,0-2.81-1.15H217.9V58.12h20.75A3.87,3.87,0,0,0,241.46,57a4,4,0,0,0-2.81-6.75H214a3.76,3.76,0,0,0-2.81,1.18A3.81,3.81,0,0,0,210,54.18V83.82a3.94,3.94,0,0,0,4,4Z" fill="#b4a8e3"/><path d="M277.3,85.58a4,4,0,0,0,7.28-.53,3.72,3.72,0,0,0-.23-3L269.54,52.39A4,4,0,0,0,266,50.21a3.85,3.85,0,0,0-2.09.6,3.81,3.81,0,0,0-1.45,1.58L247.63,82.07a3.8,3.8,0,0,0-.2,3,4,4,0,0,0,3.74,2.71,3.84,3.84,0,0,0,2.06-.58,3.69,3.69,0,0,0,1.48-1.6L266,63Z" fill="#b4a8e3"/><path d="M299.28,79.88V68h10.87a6,6,0,0,1,6,5.95,6,6,0,0,1-6,5.92Zm0-19.78V54.18a3.81,3.81,0,0,0-1.16-2.79,3.71,3.71,0,0,0-2.78-1.18,3.76,3.76,0,0,0-2.81,1.18,3.81,3.81,0,0,0-1.16,2.79V83.82a3.94,3.94,0,0,0,4,4h14.81a13.82,13.82,0,0,0,9.78-23.62,13.34,13.34,0,0,0-9.78-4.07Z" fill="#b4a8e3"/><path d="M18.77,138a18.08,18.08,0,0,0,13.28-5.5,4,4,0,0,0-5.6-5.6,10.43,10.43,0,0,1-7.68,3.19,10.47,10.47,0,0,1-7.68-3.19,10.9,10.9,0,0,1,0-15.39,10.5,10.5,0,0,1,7.68-3.18,10.46,10.46,0,0,1,7.68,3.18,3.95,3.95,0,1,0,5.6-5.57,18.06,18.06,0,0,0-13.28-5.52A18,18,0,0,0,5.5,105.94a18.78,18.78,0,0,0,0,26.56A18.06,18.06,0,0,0,18.77,138Z" fill="#b4a8e3"/><path d="M49.58,108.33V134a3.94,3.94,0,0,0,4,4,3.77,3.77,0,0,0,2.78-1.15A3.86,3.86,0,0,0,57.49,134v-25.7H65.9a3.9,3.9,0,0,0,2.81-1.16,3.95,3.95,0,0,0,0-5.57,3.84,3.84,0,0,0-2.81-1.18H41.2a4,4,0,0,0-2.81,6.75,3.83,3.83,0,0,0,2.81,1.16Z" fill="#b4a8e3"/><path d="M84.41,123.16H97.76a3.52,3.52,0,0,1,3.46,3.47,3.36,3.36,0,0,1-1,2.46,3.31,3.31,0,0,1-2.43,1H84.41Zm0-14.83h8.4a3.52,3.52,0,0,1,3.47,3.46,3.36,3.36,0,0,1-1,2.46,3.31,3.31,0,0,1-2.44,1h-8.4ZM97.76,138a11.4,11.4,0,0,0,11.37-11.37,11.42,11.42,0,0,0-6-10,11.13,11.13,0,0,0,1.08-4.82,11.39,11.39,0,0,0-11.37-11.37H80.47a3.76,3.76,0,0,0-2.81,1.18,3.81,3.81,0,0,0-1.16,2.79V134a3.86,3.86,0,0,0,1.16,2.82A3.81,3.81,0,0,0,80.47,138Z" fill="#b4a8e3"/><path d="M144.38,119.22a10.91,10.91,0,1,1-3.18-7.68A10.46,10.46,0,0,1,144.38,119.22Zm-29.66,0a18.79,18.79,0,0,0,37.57,0,18.78,18.78,0,0,0-32.08-13.28A18.11,18.11,0,0,0,114.72,119.22Z" fill="#b4a8e3"/></svg>