<svg width="96" height="23" viewBox="0 0 96 23" fill="none" xmlns="http://www.w3.org/2000/svg">
<path fill-rule="evenodd" clip-rule="evenodd" d="M51.6095 5.57021C51.8404 5.8017 53.9185 11.3168 54.1358 11.9977C54.3522 12.7272 54.6578 13.427 55.0458 14.0812C55.7656 14.2446 55.8336 13.5228 56.0509 12.9509C57.2325 9.85973 59.0254 5.35233 59.9218 2.31562C60.5466 0.844924 60.601 0.450016 59.4736 0.450016C58.3463 0.450016 58.4685 1.18536 58.0203 2.13859C57.6264 3.94972 56.1052 7.77625 55.5483 9.53291C55.5483 9.7644 55.5483 9.7644 55.2631 9.7644C54.3259 7.14984 53.2393 3.94972 52.1799 1.36239C51.8947 0.858542 51.3921 0.749601 51.0526 1.87986C50.4821 3.67737 49.6943 5.81532 49.0831 7.55836C49.0831 7.55836 48.3497 9.7644 48.2954 9.87334C47.9069 9.24719 47.6225 8.56193 47.4533 7.84433C46.6112 5.76085 45.8777 3.51396 45.1578 1.43048C44.9813 1.03557 44.9813 0.804071 44.5874 0.572573C44.1926 0.425889 43.7657 0.388264 43.3514 0.463633C42.2376 0.640661 42.9575 1.53942 43.1884 2.20668C44.5466 5.86979 46.0543 10.2683 47.5619 13.7543C47.5972 13.8407 47.6546 13.9162 47.7283 13.9733C47.8019 14.0304 47.8893 14.067 47.9816 14.0794C48.0739 14.0918 48.1678 14.0797 48.2539 14.0441C48.3399 14.0086 48.4152 13.9509 48.4719 13.8769C48.6892 13.4548 51.4465 5.57021 51.6095 5.57021Z" fill="white"/>
<path fill-rule="evenodd" clip-rule="evenodd" d="M0.215731 0.679927C0.159587 0.906777 0.178658 1.14579 0.270061 1.3608C0.500961 2.31403 -0.178156 13.1808 -0.00158602 13.6166C0.548193 13.8644 1.16459 13.9219 1.75054 13.78C2.02218 13.494 1.91352 13.2217 1.91352 12.7723C1.91352 10.8522 2.07651 9.00023 2.07651 7.02569C2.14442 6.29035 2.19875 5.7865 2.19875 5.33712C2.19875 4.88774 2.19875 4.94221 2.30741 4.83327C2.41607 4.72433 4.19536 7.82913 4.37193 8.16957C4.71149 8.83682 5.37702 9.85814 5.82524 10.648C6.50436 11.8871 6.84391 11.0429 7.0069 10.7569C7.40079 10.253 10.4432 4.90136 10.6606 4.79242C10.8643 5.0103 10.8643 10.362 10.8643 10.7569C10.8643 13.6847 10.5247 13.9706 12.3719 13.8481C12.9424 13.8481 12.9967 13.3987 12.9424 12.8948C12.9424 11.9416 12.9424 10.8658 12.9424 9.91261C12.793 7.48869 12.6843 4.72433 12.6843 2.31403C12.6843 2.02806 12.793 0.952278 12.793 0.788868C12.6267 0.601006 12.4015 0.475666 12.1545 0.433572C11.9075 0.391478 11.6536 0.435151 11.4347 0.55737C11.0409 0.788868 10.9322 1.29272 10.647 1.63315C9.50605 3.66217 7.97125 5.96353 6.89824 7.8836C6.50436 8.56447 6.50436 8.33298 6.1648 7.8836C5.43135 6.80781 4.48059 4.95583 3.81505 3.88005L2.45682 1.63315C2.26802 1.24269 2.02572 0.88059 1.73695 0.55737C1.35665 0.285019 0.609619 0.5029 0.215731 0.679927Z" fill="white"/>
<path fill-rule="evenodd" clip-rule="evenodd" d="M71.8891 6.98585C72.3698 6.59259 72.9401 6.32462 73.5491 6.20583C74.1581 6.08703 74.787 6.12109 75.3797 6.30497C77.1726 7.09479 77.4035 9.75021 76.6157 11.0439C76.2802 11.548 75.7969 11.9354 75.2325 12.1525C74.6681 12.3696 74.0504 12.4057 73.4646 12.2558C72.8972 12.1436 72.3601 11.9115 71.8891 11.575V6.98585ZM71.8891 5.06578C71.8044 3.58268 71.8044 2.09594 71.8891 0.612846C71.8891 5.78174e-05 71.6717 -0.108882 71.1013 0.108998C69.743 0.680934 69.7431 0.449436 69.9332 1.68863C70.0419 2.31504 69.9332 9.57318 69.9332 10.5945C69.9332 12.6099 69.648 13.0729 72.5682 13.9172C73.3997 14.092 74.2579 14.0965 75.0911 13.9303C75.9244 13.7642 76.7156 13.4308 77.4171 12.9503C80.2829 10.5945 79.4952 3.94914 74.266 4.45299C73.8102 4.47772 73.3564 4.53231 72.9077 4.6164C72.7312 4.67087 72.0656 5.06578 71.9841 5.06578H71.8891Z" fill="white"/>
<path fill-rule="evenodd" clip-rule="evenodd" d="M32.2816 13.7399C32.494 13.0298 32.5542 12.2826 32.4581 11.5475C32.4025 10.7769 32.4025 10.0032 32.4581 9.23255C32.6211 9.23255 32.7977 9.51851 33.1373 9.85895C33.4768 10.1994 36.2748 13.1272 36.723 13.454C36.8794 13.5999 37.0679 13.7068 37.2732 13.7659C37.4785 13.8251 37.6949 13.8348 37.9047 13.7944C38.2985 13.7944 38.9233 13.7944 39.1406 13.5221C39.1406 13.1272 38.3529 12.5008 38.0133 12.1603C37.6738 11.8199 37.2391 11.3841 36.8452 10.9211C35.9813 10.1588 35.1733 9.33512 34.4276 8.45635C34.4276 8.33379 37.5108 5.73284 38.0812 5.24261C38.2985 5.01111 38.5294 4.95664 38.4751 4.61621C37.776 4.39999 37.0282 4.39999 36.3291 4.61621C36.0575 4.73876 34.1967 6.42734 33.6941 6.87672C33.5311 7.04013 32.5668 8.06144 32.4581 8.00697C32.2951 7.4895 32.4581 0.449243 32.3495 0.0543347C32.2408 -0.340574 30.3257 0.285833 30.38 0.966709C30.4865 1.4451 30.5412 1.93363 30.543 2.42378V12.1603C30.543 12.5008 30.4344 13.5221 30.6653 13.6855C31.1937 13.8209 31.7452 13.8395 32.2816 13.7399Z" fill="white"/>
<path fill-rule="evenodd" clip-rule="evenodd" d="M17.6542 9.12384C18.279 8.96043 20.3707 9.46428 20.4658 10.0226C20.5201 10.6251 20.5201 11.2312 20.4658 11.8337C20.0719 12.3376 17.369 13.3453 16.4726 11.5478C16.3517 11.2924 16.2891 11.0133 16.2891 10.7307C16.2891 10.4481 16.3517 10.169 16.4726 9.91366C16.603 9.70604 16.7756 9.52837 16.9793 9.39226C17.1829 9.25616 17.4129 9.16469 17.6542 9.12384ZM20.5201 8.44297C19.9923 8.09242 19.402 7.84736 18.7815 7.72124C18.0084 7.6354 17.226 7.69076 16.4726 7.88465C15.8381 8.06683 15.2787 8.4483 14.8766 8.97298C14.4745 9.49765 14.251 10.1378 14.2388 10.7994C14.2266 11.4609 14.4265 12.1089 14.8091 12.6481C15.1916 13.1873 15.7366 13.5892 16.3639 13.7947C17.4382 14.1619 18.6037 14.1619 19.678 13.7947C19.9089 13.6857 20.3571 13.3997 20.5201 13.3453C20.6831 13.2908 20.751 13.7402 20.9683 13.8491C21.1856 13.9581 22.2043 13.8491 22.4895 13.5768C22.7748 13.3044 22.8291 13.3453 22.6525 12.9504C22.3897 12.4293 22.2948 11.8393 22.3809 11.2618V7.20377C22.4519 6.62918 22.3119 6.04831 21.987 5.56967C20.914 3.43172 14.4488 4.276 14.9649 6.08714C15.481 7.89827 16.3231 5.46073 19.1754 5.80117C20.7102 5.96458 20.5473 7.43527 20.5473 8.44297H20.5201Z" fill="white"/>
<path fill-rule="evenodd" clip-rule="evenodd" d="M87.005 8.16868H82.3463C82.4087 7.60954 82.6632 7.0896 83.0662 6.69799C83.506 6.31128 84.0586 6.07726 84.6417 6.03073C84.9454 6.00557 85.2511 6.04205 85.5405 6.13798C85.8299 6.2339 86.097 6.38731 86.3259 6.58905C86.5564 6.77913 86.7382 7.02164 86.8563 7.29639C86.9744 7.57114 87.0254 7.87019 87.005 8.16868ZM82.224 9.62576C82.5636 9.46235 87.657 9.62576 88.5806 9.62576C89.5042 9.62576 89.0831 6.58905 87.3989 5.34985C86.7109 4.83555 85.8917 4.52684 85.0361 4.45936C84.1805 4.39189 83.3234 4.56839 82.5635 4.9685C81.8037 5.36861 81.1723 5.97602 80.7421 6.72058C80.3119 7.46514 80.1005 8.31651 80.1324 9.17638C80.1001 10.0115 80.2939 10.8399 80.6933 11.5735C81.0926 12.3071 81.6826 12.9187 82.4006 13.3433C83.9083 14.3647 87.9558 14.3102 88.4583 12.7306C89.0831 10.7015 87.6162 11.8318 87.1001 12.0497C86.666 12.2281 86.2086 12.3427 85.7419 12.3901C82.7402 12.7306 82.0067 10.0751 82.224 9.62576Z" fill="white"/>
<path fill-rule="evenodd" clip-rule="evenodd" d="M61.8373 8.17028C61.8849 7.58866 62.1486 7.04618 62.5763 6.65025C63.0039 6.25431 63.5642 6.03378 64.1463 6.03233C65.3143 5.90977 66.6726 6.93109 66.4417 8.17028H61.8373ZM61.6064 9.53204C61.8916 9.53204 67.1751 9.53204 67.9086 9.53204C68.642 9.53204 68.5198 9.08266 68.4654 8.52434C68.4258 7.76823 68.1909 7.03542 67.7838 6.39769C67.3767 5.75996 66.8113 5.23919 66.1431 4.88638C65.4749 4.53357 64.7268 4.36082 63.972 4.38505C63.2172 4.40929 62.4816 4.62968 61.8373 5.02463C61.1128 5.45376 60.5203 6.07481 60.1249 6.81955C59.7296 7.56428 59.5466 8.40388 59.5962 9.24607C59.5385 10.0774 59.7253 10.9075 60.1332 11.6336C60.5412 12.3597 61.1525 12.9499 61.8916 13.3313C63.8067 14.5161 67.569 14.0122 67.9086 12.6641C67.9086 12.2692 68.1802 11.3023 67.569 11.5338C66.8307 11.9523 66.027 12.2423 65.1921 12.3917C64.747 12.4513 64.2946 12.4219 63.8609 12.305C63.4273 12.1881 63.0211 11.9862 62.6658 11.7108C62.1768 11.3159 61.389 10.1312 61.6064 9.53204Z" fill="white"/>
<path fill-rule="evenodd" clip-rule="evenodd" d="M92.1161 13.7947C92.4557 13.4543 92.4013 13.2909 92.4013 12.7871V11.4253C92.4013 9.62779 92.0618 6.64555 94.1399 6.19617C94.5881 6.08723 94.6967 6.46852 95.2672 6.35958C95.6036 6.05698 95.8563 5.67232 96.0007 5.24294C96.0007 4.38504 94.6424 4.22163 93.4064 4.77995C93.0125 4.95697 92.6866 5.56976 92.4013 5.62423C92.4013 5.12038 92.51 4.9025 92.1704 4.45312C91.7351 4.49498 91.3137 4.62962 90.9344 4.84803C90.3776 5.12038 90.2689 5.12038 90.3776 5.80126C90.4862 6.48214 90.3776 11.1529 90.3776 12.2696C90.4319 13.9718 90.4319 13.9173 92.1161 13.7947Z" fill="white"/>
<path fill-rule="evenodd" clip-rule="evenodd" d="M25.8875 13.7402V13.6313C26.0452 12.2482 26.0861 10.8543 26.0098 9.46435C26.0098 8.38856 26.2814 6.64552 27.4631 6.30508C28.4138 5.96464 28.4682 6.8634 29.0929 6.30508C30.5463 4.77992 28.5904 4.16713 27.4087 4.67098C26.2271 5.17483 26.3901 5.56973 26.0505 5.67867C26.0232 5.4571 26.0232 5.23299 26.0505 5.01142C26.0505 4.72545 25.9283 4.72545 25.8196 4.56204C25.3841 4.55848 24.9562 4.67635 24.5836 4.90248C24.0267 5.12036 23.8502 5.17483 24.0267 5.8557C24.1462 6.8997 24.1825 7.95157 24.1354 9.00135V12.1061C24.2576 13.7947 24.0267 13.9173 25.8875 13.7402Z" fill="white"/>
<path fill-rule="evenodd" clip-rule="evenodd" d="M51.2174 15.5511C48.9752 15.8284 46.7705 16.3536 44.6435 17.1171C43.978 17.403 43.2853 17.5665 42.6198 17.8524C41.2615 18.3563 39.9848 18.8057 38.6401 19.3231C38.1919 19.4865 34.9865 20.4398 34.4296 20.5623C31.7131 21.2296 27.6384 22.0194 25.0442 20.8347C23.8082 20.2219 23.686 22.1283 26.4975 22.8092C28.1417 23.0979 29.8289 23.0235 31.4415 22.5913C32.7997 22.3054 34.4296 21.8015 35.7199 21.4066C37.0103 21.0117 38.5315 20.5623 39.9305 20.1674C40.27 20.0448 40.5417 19.9359 40.9356 19.827L43.0137 19.2006C43.4075 19.0916 43.6928 18.9282 44.0323 18.8057L46.1783 18.3018C46.5722 18.1929 46.8575 18.0839 47.197 17.9614C50.0408 17.3531 52.9413 17.0518 55.849 17.0626C56.5688 17.0626 57.6418 17.2396 58.3753 17.3486C59.7335 17.512 59.4347 16.7903 58.5383 16.3273C56.2075 15.4319 53.6834 15.1643 51.2174 15.5511Z" fill="#F9CC46"/>
</svg>
