<svg id="Layer_1" data-name="Layer 1" xmlns="http://www.w3.org/2000/svg" xmlns:xlink="http://www.w3.org/1999/xlink" viewBox="0 0 230 231"><defs><linearGradient id="linear-gradient" x1="115" y1="221.73" x2="115" y2="1" gradientTransform="matrix(1, 0, 0, -1, 0, 232)" gradientUnits="userSpaceOnUse"><stop offset="0" stop-color="#36aee2"/><stop offset="1" stop-color="#1e96c8"/></linearGradient></defs><title>Artboard 1</title><ellipse cx="115" cy="115.5" rx="115" ry="115.5" fill="url(#linear-gradient)"/><path d="M153.18,68.84a13.38,13.38,0,0,0-4,.92h0c-1.23.46-7,2.81-15.86,6.36l-31.66,12.8-45,18.22.27-.1a14,14,0,0,0-3.15,1.54,8.59,8.59,0,0,0-2.51,2.34A6.59,6.59,0,0,0,50,115.48a8.24,8.24,0,0,0,3.83,5.74,12.72,12.72,0,0,0,2.85,1.46h0l20.94,6.77c.94,2.9,6.38,20.07,7.68,24a14.52,14.52,0,0,0,2.47,5,5.92,5.92,0,0,0,1.62,1.45,4.63,4.63,0,0,0,.79.35.61.61,0,0,0,.27.08l-.22,0c.07,0,.12.07.17.08a2.75,2.75,0,0,0,.5.1,7.31,7.31,0,0,0,6-1l.15-.12,12.36-10.8,20.71,15.26.47.19a11.38,11.38,0,0,0,11-1,10.85,10.85,0,0,0,3.23-4.1l.15-.37,16-78.73a10.93,10.93,0,0,0,.07-5.53A7.48,7.48,0,0,0,157.76,70,8.37,8.37,0,0,0,153.18,68.84Zm-.43,8.44a2.67,2.67,0,0,1-.08.73v0L136.81,156a1.75,1.75,0,0,1-.51.6c-.33.26-.6.42-2-.11L109,137.8,93.66,151.19l3.22-19.71,41.4-37c1.71-1.53,1.14-1.85,1.14-1.85.12-1.87-2.58-.55-2.58-.55l-52.2,31.05,0-.08-25-8.09v0h-.07l.14,0,.13-.06.14,0L105,96.51l31.63-12.8c8.81-3.55,15.33-6.15,15.69-6.3S152.5,77.28,152.75,77.28Z" fill="#fff"/></svg>