<svg id="Layer_1" data-name="Layer 1" xmlns="http://www.w3.org/2000/svg" xmlns:xlink="http://www.w3.org/1999/xlink" viewBox="0 0 230 231"><defs><clipPath id="clip-path"><rect x="61" y="77" width="109.76" height="76.83" fill="none"/></clipPath></defs><title>Artboard 1</title><ellipse cx="115" cy="115.5" rx="115" ry="115.5" fill="red"/><g clip-path="url(#clip-path)"><path d="M104.55,130.58V99.89l29.66,15.4Zm65.11-36s-1.07-7.52-4.36-10.84c-4.18-4.35-8.86-4.37-11-4.62C138.94,78,115.9,78,115.9,78h-.05s-23,0-38.39,1.11c-2.15.25-6.83.27-11,4.62-3.29,3.32-4.36,10.84-4.36,10.84A164.09,164.09,0,0,0,61,112.25v8.29a164.09,164.09,0,0,0,1.1,17.68s1.07,7.53,4.36,10.84c4.17,4.35,9.66,4.22,12.1,4.67,8.78.84,37.32,1.1,37.32,1.1s23.06,0,38.42-1.14c2.14-.26,6.82-.28,11-4.63,3.29-3.31,4.36-10.84,4.36-10.84a164.09,164.09,0,0,0,1.1-17.68v-8.29A164.09,164.09,0,0,0,169.66,94.57Z" fill="#fff" fill-rule="evenodd"/></g></svg>