<svg id="Layer_1" data-name="Layer 1" xmlns="http://www.w3.org/2000/svg" viewBox="0 0 1473.32 280.78"><title>Artboard 1</title><path d="M19.33,75.74a20.43,20.43,0,0,1-1.55-40.66,25,25,0,0,1,45.75-.31,20.85,20.85,0,1,1,5.35,41H19.33Z" fill="#fff" fill-rule="evenodd"/><path d="M149.6,229.23a14.38,14.38,0,0,1-1.09-28.62,17.59,17.59,0,0,1,32.2-.21,14.67,14.67,0,1,1,3.76,28.84H149.6Z" fill="#fff" fill-rule="evenodd"/><path d="M347.54,102.23A21.71,21.71,0,0,1,345.89,59a26.57,26.57,0,0,1,48.63-.32,22.15,22.15,0,1,1,5.68,43.57H347.54Z" fill="#fff" fill-rule="evenodd"/><path d="M1418.93,43.06a15.78,15.78,0,0,1-1.19-31.41,19.31,19.31,0,0,1,35.34-.24,16.11,16.11,0,1,1,4.13,31.68h-38.28Z" fill="#fff" fill-rule="evenodd"/><path d="M836.93,183.06a15.78,15.78,0,0,1-1.19-31.41,19.31,19.31,0,0,1,35.34-.24,16.11,16.11,0,1,1,4.13,31.68H836.93Z" fill="#fff" fill-rule="evenodd"/><path d="M590.53,218.74a25.93,25.93,0,0,1-2-51.6,31.72,31.72,0,0,1,58.07-.39,26.46,26.46,0,1,1,6.79,52H590.53Z" fill="#fff" fill-rule="evenodd"/><path d="M1231.53,97.74a25.93,25.93,0,0,1-2-51.6,31.72,31.72,0,0,1,58.07-.39,26.46,26.46,0,1,1,6.79,52h-62.89Z" fill="#fff" fill-rule="evenodd"/><path d="M1356.53,280.74a25.93,25.93,0,0,1-2-51.6,31.72,31.72,0,0,1,58.07-.39,26.46,26.46,0,1,1,6.79,52h-62.89Z" fill="#fff" fill-rule="evenodd"/></svg>