<svg id="Layer_1" data-name="Layer 1" xmlns="http://www.w3.org/2000/svg" xmlns:xlink="http://www.w3.org/1999/xlink" viewBox="0 0 225 231"><defs><linearGradient id="linear-gradient" x1="177.32" y1="210.96" x2="47.68" y2="22.04" gradientTransform="matrix(1, 0, 0, -1, 0, 232)" gradientUnits="userSpaceOnUse"><stop offset="0" stop-color="#d316e4"/><stop offset="0.52" stop-color="#e81655"/><stop offset="1" stop-color="#f7b60f"/></linearGradient><clipPath id="clip-path"><rect x="55" y="58" width="120.73" height="120.73" fill="none"/></clipPath></defs><title>Artboard 1</title><ellipse cx="112.5" cy="115.5" rx="112.5" ry="115.5" fill="url(#linear-gradient)"/><g clip-path="url(#clip-path)"><path d="M115.37,58c-16.4,0-18.45.07-24.89.36a44.55,44.55,0,0,0-14.66,2.81A30.85,30.85,0,0,0,58.17,78.82a44.55,44.55,0,0,0-2.81,14.66C55.07,99.92,55,102,55,118.37s.07,18.45.36,24.89a44.54,44.54,0,0,0,2.81,14.65,30.85,30.85,0,0,0,17.65,17.65,44.55,44.55,0,0,0,14.66,2.81c6.44.29,8.49.36,24.89.36s18.45-.07,24.89-.36a44.54,44.54,0,0,0,14.65-2.81,30.85,30.85,0,0,0,17.65-17.65,44.54,44.54,0,0,0,2.81-14.65c.29-6.44.36-8.5.36-24.89s-.07-18.45-.36-24.89a44.55,44.55,0,0,0-2.81-14.66,30.85,30.85,0,0,0-17.65-17.65,44.54,44.54,0,0,0-14.65-2.81C133.82,58.07,131.76,58,115.37,58Zm0,10.88c16.11,0,18,.06,24.39.35A33.4,33.4,0,0,1,151,71.31a19.93,19.93,0,0,1,11.45,11.45A33.14,33.14,0,0,1,164.5,94c.29,6.37.35,8.28.35,24.4s-.06,18-.35,24.39A33.14,33.14,0,0,1,162.42,154,20,20,0,0,1,151,165.43a33.47,33.47,0,0,1-11.21,2.07c-6.37.29-8.27.35-24.39.35s-18-.06-24.4-.35a33.47,33.47,0,0,1-11.21-2.07,18.93,18.93,0,0,1-6.94-4.52A18.62,18.62,0,0,1,68.31,154a33.4,33.4,0,0,1-2.08-11.21c-.29-6.37-.35-8.28-.35-24.39s.06-18,.35-24.4a33.4,33.4,0,0,1,2.08-11.21A19.93,19.93,0,0,1,79.76,71.31,33.4,33.4,0,0,1,91,69.23C97.34,68.94,99.25,68.88,115.37,68.88Zm0,18.49a31,31,0,1,0,31,31A31,31,0,0,0,115.37,87.37Zm0,51.12a20.13,20.13,0,1,1,20.12-20.12A20.12,20.12,0,0,1,115.37,138.49Zm39.46-52.35a7.24,7.24,0,1,1-7.24-7.24A7.25,7.25,0,0,1,154.83,86.14Z" fill="#fff" fill-rule="evenodd"/></g></svg>