<svg width="324" height="138" viewBox="0 0 324 138" fill="none" xmlns="http://www.w3.org/2000/svg">
<path d="M5.94789 0C4.84364 0 3.9067 0.393306 3.13707 1.17992C2.36745 1.94979 1.98263 2.87866 1.98263 3.96653V33.6151C1.98263 34.7197 2.36745 35.6569 3.13707 36.4268C3.9067 37.1967 4.84364 37.5816 5.94789 37.5816C7.03541 37.5816 7.96398 37.1967 8.73361 36.4268C9.50324 35.6569 9.88806 34.7197 9.88806 33.6151V7.90795H26.7028V33.6151C26.7028 34.7197 27.0876 35.6569 27.8572 36.4268C28.6268 37.1967 29.5554 37.5816 30.6429 37.5816C31.7305 37.5816 32.6674 37.1967 33.4538 36.4268C34.2234 35.6569 34.6082 34.7197 34.6082 33.6151V3.96653C34.6082 2.87866 34.2234 1.94979 33.4538 1.17992C32.6674 0.393306 31.7305 0 30.6429 0H5.94789Z" fill="white"/>
<path d="M68.9128 13.8577C68.9128 15.4812 68.3272 16.8787 67.156 18.0502C66.0015 19.205 64.6045 19.7824 62.9649 19.7824H52.098V7.90795H62.9649C64.6045 7.90795 66.0015 8.49372 67.156 9.66527C68.3272 10.8201 68.9128 12.2176 68.9128 13.8577ZM48.1579 37.5816C49.2454 37.5816 50.174 37.1967 50.9436 36.4268C51.7132 35.6569 52.098 34.7197 52.098 33.6151V27.6904H62.9649C66.7795 27.6904 70.0421 26.3347 72.7525 23.6234C75.463 20.9289 76.8182 17.6736 76.8182 13.8577C76.8182 10.0418 75.463 6.77824 72.7525 4.06695C70.0421 1.35565 66.7795 0 62.9649 0H48.1579C47.0536 0 46.1167 0.393306 45.3471 1.17992C44.5774 1.94979 44.1926 2.87866 44.1926 3.96653V33.6151C44.1926 34.7197 44.5774 35.6569 45.3471 36.4268C46.1167 37.1967 47.0536 37.5816 48.1579 37.5816Z" fill="white"/>
<path d="M112.074 18.8034C112.074 21.7992 111.012 24.3598 108.887 26.4854C106.746 28.6109 104.177 29.6736 101.183 29.6736C98.1877 29.6736 95.6278 28.6109 93.503 26.4854C91.3781 24.3598 90.3157 21.7992 90.3157 18.8034C90.3157 15.8075 91.3781 13.2469 93.503 11.1213C95.6278 8.97908 98.1877 7.90795 101.183 7.90795C104.177 7.90795 106.746 8.97908 108.887 11.1213C111.012 13.2469 112.074 15.8075 112.074 18.8034ZM82.4103 18.8034C82.4103 23.9749 84.2423 28.4017 87.9064 32.0837C91.5873 35.749 96.0126 37.5816 101.183 37.5816C106.369 37.5816 110.795 35.749 114.459 32.0837C118.139 28.4017 119.98 23.9749 119.98 18.8034C119.98 13.6151 118.139 9.18828 114.459 5.52301C110.795 1.841 106.369 0 101.183 0C96.0126 0 91.5873 1.841 87.9064 5.52301C84.2423 9.18828 82.4103 13.6151 82.4103 18.8034Z" fill="white"/>
<path d="M26.7028 64.0669C26.7028 65.6904 26.1172 67.0879 24.946 68.2594C23.7916 69.4142 22.3945 69.9916 20.7549 69.9916H9.88806V58.1172H20.7549C22.3945 58.1172 23.7916 58.7029 24.946 59.8745C26.1172 61.0293 26.7028 62.4268 26.7028 64.0669ZM5.94789 87.7908C7.03541 87.7908 7.96398 87.4059 8.73361 86.636C9.50324 85.8661 9.88806 84.9289 9.88806 83.8243V77.8996H20.7549C24.5696 77.8996 27.8321 76.5439 30.5426 73.8326C33.253 71.1381 34.6082 67.8829 34.6082 64.0669C34.6082 60.251 33.253 56.9874 30.5426 54.2761C27.8321 51.5649 24.5696 50.2092 20.7549 50.2092H5.94789C4.84364 50.2092 3.9067 50.6025 3.13707 51.3891C2.36745 52.159 1.98263 53.0879 1.98263 54.1757V83.8243C1.98263 84.9289 2.36745 85.8661 3.13707 86.636C3.9067 87.4059 4.84364 87.7908 5.94789 87.7908Z" fill="white"/>
<path d="M69.8645 69.0126C69.8645 72.0084 68.802 74.569 66.6772 76.6946C64.5356 78.8201 61.9674 79.8829 58.9725 79.8829C55.9777 79.8829 53.4178 78.8201 51.293 76.6946C49.1681 74.569 48.1057 72.0084 48.1057 69.0126C48.1057 66.0167 49.1681 63.4561 51.293 61.3305C53.4178 59.1883 55.9777 58.1172 58.9725 58.1172C61.9674 58.1172 64.5356 59.1883 66.6772 61.3305C68.802 63.4561 69.8645 66.0167 69.8645 69.0126ZM40.2003 69.0126C40.2003 74.1841 42.0323 78.6109 45.6964 82.2929C49.3773 85.9582 53.8026 87.7908 58.9725 87.7908C64.1592 87.7908 68.5845 85.9582 72.2486 82.2929C75.9295 78.6109 77.7699 74.1841 77.7699 69.0126C77.7699 63.8243 75.9295 59.3975 72.2486 55.7322C68.5845 52.0502 64.1592 50.2092 58.9725 50.2092C53.8026 50.2092 49.3773 52.0502 45.6964 55.7322C42.0323 59.3975 40.2003 63.8243 40.2003 69.0126Z" fill="white"/>
<path d="M103.644 63.0377L112.076 79.8829H95.2362L103.644 63.0377ZM116.97 88.7699C116.97 89.8745 117.363 90.8117 118.149 91.5816C118.919 92.3515 119.848 92.7364 120.935 92.7364C122.023 92.7364 122.951 92.3515 123.721 91.5816C124.507 90.8117 124.9 89.8745 124.9 88.7699V83.8494C124.9 82.7448 124.507 81.8075 123.721 81.0377C122.951 80.2678 122.023 79.8829 120.935 79.8829H120.91L107.182 52.4435C106.848 51.7741 106.362 51.2385 105.727 50.8368C105.091 50.4519 104.396 50.2594 103.644 50.2594C102.891 50.2594 102.196 50.4519 101.561 50.8368C100.925 51.2385 100.44 51.7741 100.105 52.4435L86.3771 79.8829H86.352C85.2478 79.8829 84.3108 80.2678 83.5412 81.0377C82.7716 81.8075 82.3867 82.7448 82.3867 83.8494V88.7699C82.3867 89.8745 82.7716 90.8117 83.5412 91.5816C84.3108 92.3515 85.2478 92.7364 86.352 92.7364C87.4395 92.7364 88.3681 92.3515 89.1377 91.5816C89.9074 90.8117 90.2922 89.8745 90.2922 88.7699V87.7908H116.97V88.7699Z" fill="white"/>
<path d="M135.47 87.7908C135.001 87.7908 134.55 87.7155 134.115 87.5649C133.328 87.2803 132.701 86.795 132.232 86.1088C131.747 85.4226 131.505 84.6611 131.505 83.8243V54.1757C131.505 53.0879 131.889 52.159 132.659 51.3891C133.429 50.6025 134.366 50.2092 135.47 50.2092C136.557 50.2092 137.486 50.6025 138.256 51.3891C139.025 52.159 139.41 53.0879 139.41 54.1757V72.9038L157.128 51.6402C157.664 51.0042 158.333 50.5774 159.136 50.3598C159.939 50.1423 160.734 50.1757 161.52 50.4603C162.306 50.7448 162.934 51.2218 163.402 51.8912C163.888 52.5774 164.13 53.3389 164.13 54.1757V83.8243C164.13 84.9289 163.745 85.8661 162.976 86.636C162.189 87.4059 161.252 87.7908 160.165 87.7908C159.077 87.7908 158.149 87.4059 157.379 86.636C156.61 85.8661 156.225 84.9289 156.225 83.8243V65.0962L138.507 86.3598C137.703 87.3138 136.691 87.7908 135.47 87.7908Z" fill="white"/>
<path d="M183.076 58.1172V83.8243C183.076 84.9289 183.46 85.8661 184.23 86.636C185.016 87.4059 185.953 87.7908 187.041 87.7908C188.128 87.7908 189.057 87.4059 189.827 86.636C190.596 85.8661 190.981 84.9289 190.981 83.8243V58.1172H199.388C200.476 58.1172 201.413 57.7322 202.199 56.9623C202.969 56.1925 203.354 55.2636 203.354 54.1757C203.354 53.0879 202.969 52.159 202.199 51.3891C201.413 50.6025 200.476 50.2092 199.388 50.2092H174.693C173.589 50.2092 172.652 50.6025 171.883 51.3891C171.113 52.159 170.728 53.0879 170.728 54.1757C170.728 55.2636 171.113 56.1925 171.883 56.9623C172.652 57.7322 173.589 58.1172 174.693 58.1172H183.076Z" fill="white"/>
<path d="M238.654 87.7908C239.741 87.7908 240.678 87.4059 241.465 86.636C242.234 85.8661 242.619 84.9289 242.619 83.8243C242.619 82.7364 242.234 81.8075 241.465 81.0377C240.678 80.2678 239.741 79.8829 238.654 79.8829H217.899V72.954H233.71C234.797 72.954 235.734 72.569 236.521 71.7992C237.29 71.0293 237.675 70.1004 237.675 69.0126C237.675 67.908 237.29 66.9707 236.521 66.2008C235.734 65.431 234.797 65.046 233.71 65.046H217.899V58.1172H238.654C239.741 58.1172 240.678 57.7322 241.465 56.9623C242.234 56.1925 242.619 55.2636 242.619 54.1757C242.619 53.0879 242.234 52.159 241.465 51.3891C240.678 50.6025 239.741 50.2092 238.654 50.2092H213.959C212.855 50.2092 211.918 50.6025 211.148 51.3891C210.378 52.159 209.993 53.0879 209.993 54.1757V83.8243C209.993 84.9289 210.378 85.8661 211.148 86.636C211.918 87.4059 212.855 87.7908 213.959 87.7908H238.654Z" fill="white"/>
<path d="M277.298 85.5816C277.783 86.5523 278.545 87.2134 279.582 87.5649C280.619 87.8996 281.623 87.8243 282.594 87.3389C283.564 86.8536 284.225 86.0921 284.576 85.0544C284.927 84.0167 284.852 83.0126 284.35 82.0418L269.543 52.3933C269.209 51.7239 268.723 51.1967 268.088 50.8117C267.452 50.41 266.758 50.2092 266.005 50.2092C265.252 50.2092 264.557 50.41 263.922 50.8117C263.286 51.1967 262.801 51.7239 262.466 52.3933L247.634 82.0669C247.149 83.0377 247.082 84.0418 247.433 85.0795C247.768 86.1172 248.429 86.8787 249.416 87.364C249.968 87.6485 250.554 87.7908 251.173 87.7908C251.909 87.7908 252.595 87.5983 253.23 87.2134C253.883 86.8285 254.377 86.2929 254.711 85.6067L266.005 63.0126L277.298 85.5816Z" fill="white"/>
<path d="M299.28 79.8829V68.0084H310.147C311.786 68.0084 313.183 68.5941 314.338 69.7657C315.509 70.9205 316.095 72.318 316.095 73.9582C316.095 75.5816 315.509 76.9791 314.338 78.1506C313.183 79.3054 311.786 79.8829 310.147 79.8829H299.28ZM299.28 60.1004V54.1757C299.28 53.0879 298.895 52.159 298.125 51.3891C297.356 50.6025 296.427 50.2092 295.34 50.2092C294.235 50.2092 293.299 50.6025 292.529 51.3891C291.759 52.159 291.374 53.0879 291.374 54.1757V83.8243C291.374 84.9289 291.759 85.8661 292.529 86.636C293.299 87.4059 294.235 87.7908 295.34 87.7908H310.147C313.961 87.7908 317.224 86.4351 319.934 83.7238C322.645 81.0293 324 77.7741 324 73.9582C324 70.1423 322.645 66.8787 319.934 64.1674C317.224 61.4561 313.961 60.1004 310.147 60.1004H299.28Z" fill="white"/>
<path d="M18.7723 138C23.9589 138 28.3842 136.167 32.0483 132.502C32.818 131.732 33.2028 130.795 33.2028 129.69C33.2028 128.603 32.818 127.674 32.0483 126.904C31.2787 126.134 30.3501 125.749 29.2626 125.749C28.1584 125.749 27.2214 126.134 26.4518 126.904C24.327 129.029 21.7671 130.092 18.7723 130.092C15.7774 130.092 13.2175 129.029 11.0927 126.904C8.96785 124.778 7.90543 122.218 7.90543 119.222C7.90543 116.209 8.96785 113.64 11.0927 111.515C13.2175 109.389 15.7774 108.326 18.7723 108.326C21.7671 108.326 24.327 109.389 26.4518 111.515C27.2214 112.301 28.1584 112.695 29.2626 112.695C30.3501 112.695 31.2787 112.301 32.0483 111.515C32.818 110.745 33.2028 109.816 33.2028 108.728C33.2028 107.64 32.818 106.711 32.0483 105.941C28.3842 102.259 23.9589 100.418 18.7723 100.418C13.5856 100.418 9.16026 102.259 5.49615 105.941C1.83205 109.59 0 114.017 0 119.222C0 124.41 1.83205 128.837 5.49615 132.502C9.16026 136.167 13.5856 138 18.7723 138Z" fill="white"/>
<path d="M49.5833 108.326V134.033C49.5833 135.138 49.9681 136.075 50.7377 136.845C51.5241 137.615 52.461 138 53.5485 138C54.6361 138 55.5646 137.615 56.3343 136.845C57.1039 136.075 57.4887 135.138 57.4887 134.033V108.326H65.8961C66.9836 108.326 67.9205 107.941 68.7069 107.172C69.4765 106.402 69.8613 105.473 69.8613 104.385C69.8613 103.297 69.4765 102.368 68.7069 101.598C67.9205 100.812 66.9836 100.418 65.8961 100.418H41.201C40.0968 100.418 39.1598 100.812 38.3902 101.598C37.6206 102.368 37.2358 103.297 37.2358 104.385C37.2358 105.473 37.6206 106.402 38.3902 107.172C39.1598 107.941 40.0968 108.326 41.201 108.326H49.5833Z" fill="white"/>
<path d="M84.4066 123.163H97.758C98.7117 123.163 99.5231 123.506 100.192 124.192C100.878 124.862 101.221 125.674 101.221 126.628C101.221 127.582 100.878 128.402 100.192 129.088C99.5231 129.757 98.7117 130.092 97.758 130.092H84.4066V123.163ZM84.4066 108.326H92.814C93.7677 108.326 94.5791 108.669 95.2484 109.356C95.9343 110.025 96.2773 110.837 96.2773 111.791C96.2773 112.745 95.9343 113.565 95.2484 114.251C94.5791 114.921 93.7677 115.255 92.814 115.255H84.4066V108.326ZM97.758 138C100.887 138 103.564 136.887 105.789 134.661C108.014 132.435 109.127 129.757 109.127 126.628C109.127 124.502 108.566 122.527 107.445 120.703C106.375 118.946 104.927 117.582 103.104 116.611C103.823 115.088 104.183 113.481 104.183 111.791C104.183 108.661 103.07 105.983 100.845 103.757C98.6197 101.531 95.9427 100.418 92.814 100.418H80.4665C79.3622 100.418 78.4253 100.812 77.6556 101.598C76.886 102.368 76.5012 103.297 76.5012 104.385V134.033C76.5012 135.138 76.886 136.075 77.6556 136.845C78.4253 137.615 79.3622 138 80.4665 138H97.758Z" fill="white"/>
<path d="M144.383 119.222C144.383 122.218 143.321 124.778 141.196 126.904C139.054 129.029 136.486 130.092 133.491 130.092C130.496 130.092 127.936 129.029 125.812 126.904C123.687 124.778 122.624 122.218 122.624 119.222C122.624 116.226 123.687 113.665 125.812 111.54C127.936 109.397 130.496 108.326 133.491 108.326C136.486 108.326 139.054 109.397 141.196 111.54C143.321 113.665 144.383 116.226 144.383 119.222ZM114.719 119.222C114.719 124.393 116.551 128.82 120.215 132.502C123.896 136.167 128.321 138 133.491 138C138.678 138 143.103 136.167 146.767 132.502C150.448 128.82 152.288 124.393 152.288 119.222C152.288 114.033 150.448 109.607 146.767 105.941C143.103 102.259 138.678 100.418 133.491 100.418C128.321 100.418 123.896 102.259 120.215 105.941C116.551 109.607 114.719 114.033 114.719 119.222Z" fill="white"/>
</svg>
