<svg id="Layer_1" data-name="Layer 1" xmlns="http://www.w3.org/2000/svg" viewBox="0 0 225 231"><title>Artboard 1</title><ellipse cx="112.5" cy="115.5" rx="112.5" ry="115.5" fill="#4a76a8"/><path d="M152.83,131.67c8.82,7.89,10.64,11.68,10.92,12.17,3.64,5.81-4,6.25-4,6.25l-14.67.22s-3.19.6-7.28-2.14c-5.52-3.62-10.81-13.1-14.74-11.84s-3.92,9.76-3.92,9.76a3.36,3.36,0,0,1-.91,2.14c-1,1-3,.65-3,.65h-6.55s-14.5,1.43-27.18-11.34C67.57,123.61,55.29,96.2,55.29,96.2s-.69-1.65.05-2.58,3.25-.88,3.25-.88H74.28a4.21,4.21,0,0,1,2.51.88,4.86,4.86,0,0,1,1.36,1.86,94.06,94.06,0,0,0,5.92,11.68c6.54,10.91,9.55,13.27,11.66,12.12,3.41-1.7,2.44-15.41,2.44-15.41s.06-5-1.65-7.18c-1.31-1.7-3.81-2.25-4.89-2.36-.91-.11.57-2.08,2.45-3C96.92,90,101.87,90,107.79,90a28.75,28.75,0,0,1,7.67.71c5.46,1.26,3.59,6.14,3.59,17.77,0,3.78-.57,8.93,2.1,10.74,1.2.77,4.15.11,11.55-11.9a95.45,95.45,0,0,0,6-12.44,4.81,4.81,0,0,1,1.42-1.7,5.83,5.83,0,0,1,2.16-.44H158.8s5-.55,5.8,1.59-1.87,7.57-8.64,16.17C144.93,124.76,143.67,123.44,152.83,131.67Z" fill="#fff"/></svg>